<svg width="375" height="812" viewBox="0 0 375 812" fill="none" xmlns="http://www.w3.org/2000/svg">
<rect width="375" height="812" fill="#E5E5E5"/>
<rect width="375" height="812" fill="#3767AD"/>
<g filter="url(#filter0_d)">
<rect x="79" y="531" width="216" height="47" rx="4" fill="white"/>
</g>
<path d="M128.033 556.175C128.033 554.71 128.373 553.535 129.053 552.65C129.732 551.76 130.644 551.314 131.786 551.314C132.794 551.314 133.608 551.666 134.229 552.369V547.5H136.365V561H134.432L134.326 560.016C133.688 560.789 132.835 561.176 131.769 561.176C130.655 561.176 129.753 560.728 129.062 559.831C128.376 558.935 128.033 557.716 128.033 556.175ZM130.169 556.359C130.169 557.326 130.354 558.082 130.723 558.627C131.098 559.166 131.628 559.436 132.313 559.436C133.187 559.436 133.825 559.046 134.229 558.267V554.206C133.837 553.444 133.204 553.063 132.331 553.063C131.64 553.063 131.106 553.339 130.731 553.89C130.356 554.435 130.169 555.258 130.169 556.359ZM138.193 556.157C138.193 555.226 138.378 554.388 138.747 553.644C139.116 552.894 139.635 552.319 140.303 551.921C140.971 551.517 141.738 551.314 142.605 551.314C143.889 551.314 144.929 551.728 145.726 552.554C146.528 553.38 146.962 554.476 147.026 555.841L147.035 556.342C147.035 557.279 146.854 558.117 146.49 558.855C146.133 559.594 145.617 560.165 144.943 560.569C144.275 560.974 143.502 561.176 142.623 561.176C141.281 561.176 140.206 560.73 139.397 559.84C138.595 558.943 138.193 557.751 138.193 556.263V556.157ZM140.329 556.342C140.329 557.32 140.531 558.088 140.936 558.645C141.34 559.195 141.902 559.471 142.623 559.471C143.344 559.471 143.903 559.189 144.302 558.627C144.706 558.064 144.908 557.241 144.908 556.157C144.908 555.196 144.7 554.435 144.284 553.872C143.874 553.31 143.314 553.028 142.605 553.028C141.908 553.028 141.354 553.307 140.944 553.863C140.534 554.414 140.329 555.24 140.329 556.342ZM148.441 556.175C148.441 554.71 148.781 553.535 149.461 552.65C150.141 551.76 151.052 551.314 152.194 551.314C153.202 551.314 154.017 551.666 154.638 552.369V547.5H156.773V561H154.84L154.734 560.016C154.096 560.789 153.243 561.176 152.177 561.176C151.063 561.176 150.161 560.728 149.47 559.831C148.784 558.935 148.441 557.716 148.441 556.175ZM150.577 556.359C150.577 557.326 150.762 558.082 151.131 558.627C151.506 559.166 152.036 559.436 152.722 559.436C153.595 559.436 154.233 559.046 154.638 558.267V554.206C154.245 553.444 153.612 553.063 152.739 553.063C152.048 553.063 151.515 553.339 151.14 553.89C150.765 554.435 150.577 555.258 150.577 556.359ZM164.684 561C164.59 560.818 164.508 560.522 164.438 560.112C163.758 560.821 162.926 561.176 161.941 561.176C160.986 561.176 160.207 560.903 159.604 560.358C159 559.813 158.698 559.14 158.698 558.337C158.698 557.323 159.073 556.547 159.823 556.008C160.579 555.463 161.657 555.19 163.058 555.19H164.367V554.566C164.367 554.074 164.229 553.682 163.954 553.389C163.679 553.09 163.26 552.94 162.697 552.94C162.211 552.94 161.812 553.063 161.502 553.31C161.191 553.55 161.036 553.857 161.036 554.232H158.9C158.9 553.711 159.073 553.225 159.419 552.773C159.765 552.316 160.233 551.959 160.825 551.701C161.423 551.443 162.088 551.314 162.82 551.314C163.934 551.314 164.821 551.596 165.483 552.158C166.146 552.715 166.485 553.5 166.503 554.514V558.803C166.503 559.658 166.623 560.341 166.863 560.851V561H164.684ZM162.337 559.462C162.759 559.462 163.154 559.359 163.523 559.154C163.898 558.949 164.18 558.674 164.367 558.328V556.535H163.216C162.425 556.535 161.83 556.673 161.432 556.948C161.033 557.224 160.834 557.613 160.834 558.117C160.834 558.527 160.969 558.855 161.238 559.102C161.514 559.342 161.88 559.462 162.337 559.462ZM170.968 551.49V561.844C170.968 562.816 170.725 563.558 170.238 564.067C169.758 564.583 169.052 564.841 168.12 564.841C167.728 564.841 167.35 564.791 166.986 564.691V563.004C167.209 563.057 167.461 563.083 167.742 563.083C168.451 563.083 168.814 562.696 168.832 561.923V551.49H170.968ZM168.647 549.021C168.647 548.692 168.75 548.42 168.955 548.203C169.166 547.986 169.465 547.878 169.852 547.878C170.238 547.878 170.537 547.986 170.748 548.203C170.959 548.42 171.064 548.692 171.064 549.021C171.064 549.343 170.959 549.612 170.748 549.829C170.537 550.04 170.238 550.146 169.852 550.146C169.465 550.146 169.166 550.04 168.955 549.829C168.75 549.612 168.647 549.343 168.647 549.021ZM183.07 558.416C183.07 558.035 182.912 557.745 182.596 557.546C182.285 557.347 181.767 557.171 181.04 557.019C180.313 556.866 179.707 556.673 179.221 556.438C178.154 555.923 177.621 555.176 177.621 554.197C177.621 553.377 177.967 552.691 178.658 552.141C179.35 551.59 180.229 551.314 181.295 551.314C182.432 551.314 183.349 551.596 184.046 552.158C184.749 552.721 185.101 553.45 185.101 554.347H182.965C182.965 553.937 182.812 553.597 182.508 553.327C182.203 553.052 181.799 552.914 181.295 552.914C180.826 552.914 180.442 553.022 180.144 553.239C179.851 553.456 179.704 553.746 179.704 554.109C179.704 554.438 179.842 554.692 180.117 554.874C180.393 555.056 180.949 555.24 181.787 555.428C182.625 555.609 183.281 555.829 183.756 556.087C184.236 556.339 184.591 556.644 184.819 557.001C185.054 557.358 185.171 557.792 185.171 558.302C185.171 559.157 184.816 559.852 184.107 560.385C183.398 560.912 182.47 561.176 181.321 561.176C180.542 561.176 179.848 561.035 179.238 560.754C178.629 560.473 178.154 560.086 177.814 559.594C177.475 559.102 177.305 558.571 177.305 558.003H179.379C179.408 558.507 179.599 558.896 179.95 559.172C180.302 559.441 180.768 559.576 181.348 559.576C181.91 559.576 182.338 559.471 182.631 559.26C182.924 559.043 183.07 558.762 183.07 558.416ZM189.319 559.295H194.382V561H186.665V559.603L191.49 553.213H186.753V551.49H194.197V552.844L189.319 559.295ZM199.181 556.922L198.231 557.897V561H196.096V547.5H198.231V555.287L198.899 554.452L201.527 551.49H204.094L200.561 555.454L204.472 561H202.002L199.181 556.922ZM207.768 561H205.632V547.5H207.768V561ZM215.783 561C215.689 560.818 215.607 560.522 215.537 560.112C214.857 560.821 214.025 561.176 213.041 561.176C212.086 561.176 211.307 560.903 210.703 560.358C210.1 559.813 209.798 559.14 209.798 558.337C209.798 557.323 210.173 556.547 210.923 556.008C211.679 555.463 212.757 555.19 214.157 555.19H215.467V554.566C215.467 554.074 215.329 553.682 215.054 553.389C214.778 553.09 214.359 552.94 213.797 552.94C213.311 552.94 212.912 553.063 212.602 553.31C212.291 553.55 212.136 553.857 212.136 554.232H210C210 553.711 210.173 553.225 210.519 552.773C210.864 552.316 211.333 551.959 211.925 551.701C212.522 551.443 213.188 551.314 213.92 551.314C215.033 551.314 215.921 551.596 216.583 552.158C217.245 552.715 217.585 553.5 217.603 554.514V558.803C217.603 559.658 217.723 560.341 217.963 560.851V561H215.783ZM213.437 559.462C213.858 559.462 214.254 559.359 214.623 559.154C214.998 558.949 215.279 558.674 215.467 558.328V556.535H214.315C213.524 556.535 212.93 556.673 212.531 556.948C212.133 557.224 211.934 557.613 211.934 558.117C211.934 558.527 212.068 558.855 212.338 559.102C212.613 559.342 212.979 559.462 213.437 559.462ZM221.821 551.49L221.883 552.589C222.586 551.739 223.509 551.314 224.651 551.314C226.632 551.314 227.64 552.448 227.675 554.716V561H225.539V554.839C225.539 554.235 225.407 553.79 225.144 553.503C224.886 553.21 224.461 553.063 223.869 553.063C223.008 553.063 222.366 553.453 221.944 554.232V561H219.809V551.49H221.821ZM232.948 556.922L231.999 557.897V561H229.863V547.5H231.999V555.287L232.667 554.452L235.295 551.49H237.861L234.328 555.454L238.239 561H235.77L232.948 556.922ZM246.94 559.383C246.513 560.004 245.968 560.464 245.306 560.763C244.796 561.091 244.433 561.393 244.216 561.668C243.999 561.943 243.891 562.225 243.891 562.512C243.891 562.91 244.099 563.109 244.515 563.109C244.772 563.109 245.036 563.042 245.306 562.907L245.49 564.155C245.062 564.413 244.579 564.542 244.04 564.542C243.483 564.542 243.035 564.381 242.695 564.059C242.355 563.736 242.186 563.309 242.186 562.775C242.186 562.178 242.42 561.639 242.889 561.158C241.676 561.082 240.686 560.643 239.918 559.84C239.156 559.031 238.758 557.997 238.723 556.737V556.228C238.723 555.278 238.904 554.432 239.268 553.688C239.637 552.938 240.152 552.354 240.814 551.938C241.477 551.522 242.215 551.314 243.029 551.314C244.324 551.314 245.323 551.728 246.026 552.554C246.735 553.38 247.09 554.549 247.09 556.061V556.922H240.876C240.94 557.707 241.201 558.328 241.658 558.785C242.121 559.242 242.701 559.471 243.398 559.471C244.377 559.471 245.174 559.075 245.789 558.284L246.94 559.383ZM243.021 553.028C242.435 553.028 241.96 553.233 241.597 553.644C241.239 554.054 241.011 554.625 240.911 555.357H244.98V555.199C244.934 554.484 244.743 553.945 244.409 553.582C244.075 553.213 243.612 553.028 243.021 553.028Z" fill="black"/>
<path d="M147.68 630.275C147.192 630.85 146.499 631.137 145.602 631.137C144.799 631.137 144.191 630.902 143.776 630.433C143.366 629.963 143.161 629.284 143.161 628.396V623.604H144.822V628.375C144.822 629.314 145.212 629.783 145.991 629.783C146.798 629.783 147.342 629.494 147.625 628.915V623.604H149.286V631H147.721L147.68 630.275ZM155.124 628.99C155.124 628.694 155.001 628.468 154.755 628.313C154.513 628.159 154.11 628.022 153.545 627.903C152.98 627.785 152.508 627.634 152.13 627.452C151.3 627.051 150.886 626.47 150.886 625.709C150.886 625.071 151.155 624.538 151.692 624.109C152.23 623.681 152.914 623.467 153.743 623.467C154.627 623.467 155.34 623.686 155.883 624.123C156.43 624.561 156.703 625.128 156.703 625.825H155.042C155.042 625.506 154.924 625.242 154.687 625.032C154.45 624.818 154.135 624.711 153.743 624.711C153.379 624.711 153.08 624.795 152.848 624.964C152.62 625.132 152.506 625.358 152.506 625.641C152.506 625.896 152.613 626.094 152.827 626.235C153.041 626.377 153.474 626.52 154.126 626.666C154.778 626.807 155.288 626.978 155.657 627.179C156.031 627.375 156.307 627.612 156.484 627.89C156.667 628.168 156.758 628.505 156.758 628.901C156.758 629.567 156.482 630.107 155.931 630.521C155.379 630.932 154.657 631.137 153.764 631.137C153.158 631.137 152.618 631.027 152.144 630.809C151.67 630.59 151.3 630.289 151.036 629.906C150.772 629.523 150.64 629.111 150.64 628.669H152.253C152.276 629.061 152.424 629.364 152.697 629.578C152.971 629.788 153.333 629.893 153.784 629.893C154.222 629.893 154.554 629.811 154.782 629.646C155.01 629.478 155.124 629.259 155.124 628.99ZM162.691 630.275C162.204 630.85 161.511 631.137 160.613 631.137C159.811 631.137 159.203 630.902 158.788 630.433C158.378 629.963 158.173 629.284 158.173 628.396V623.604H159.834V628.375C159.834 629.314 160.224 629.783 161.003 629.783C161.81 629.783 162.354 629.494 162.637 628.915V623.604H164.298V631H162.732L162.691 630.275ZM167.531 623.604L167.579 624.458C168.126 623.797 168.844 623.467 169.732 623.467C171.273 623.467 172.057 624.349 172.084 626.112V631H170.423V626.208C170.423 625.739 170.32 625.392 170.115 625.169C169.915 624.941 169.584 624.827 169.124 624.827C168.454 624.827 167.955 625.13 167.627 625.736V631H165.966V623.604H167.531ZM169.548 620.5H171.441L169.548 622.571H168.215L169.548 620.5ZM181.415 628.99C181.415 628.694 181.292 628.468 181.046 628.313C180.804 628.159 180.401 628.022 179.836 627.903C179.271 627.785 178.799 627.634 178.421 627.452C177.591 627.051 177.177 626.47 177.177 625.709C177.177 625.071 177.446 624.538 177.983 624.109C178.521 623.681 179.205 623.467 180.034 623.467C180.918 623.467 181.632 623.686 182.174 624.123C182.721 624.561 182.994 625.128 182.994 625.825H181.333C181.333 625.506 181.215 625.242 180.978 625.032C180.741 624.818 180.426 624.711 180.034 624.711C179.67 624.711 179.371 624.795 179.139 624.964C178.911 625.132 178.797 625.358 178.797 625.641C178.797 625.896 178.904 626.094 179.118 626.235C179.332 626.377 179.765 626.52 180.417 626.666C181.069 626.807 181.579 626.978 181.948 627.179C182.322 627.375 182.598 627.612 182.775 627.89C182.958 628.168 183.049 628.505 183.049 628.901C183.049 629.567 182.773 630.107 182.222 630.521C181.67 630.932 180.948 631.137 180.055 631.137C179.449 631.137 178.909 631.027 178.435 630.809C177.961 630.59 177.591 630.289 177.327 629.906C177.063 629.523 176.931 629.111 176.931 628.669H178.544C178.567 629.061 178.715 629.364 178.988 629.578C179.262 629.788 179.624 629.893 180.075 629.893C180.513 629.893 180.845 629.811 181.073 629.646C181.301 629.478 181.415 629.259 181.415 628.99ZM186.275 629.674H190.213V631H184.211V629.913L187.964 624.943H184.279V623.604H190.069V624.656L186.275 629.674ZM193.945 627.828L193.207 628.587V631H191.546V620.5H193.207V626.557L193.727 625.907L195.771 623.604H197.767L195.019 626.687L198.061 631H196.14L193.945 627.828ZM200.624 631H198.963V620.5H200.624V631ZM206.858 631C206.785 630.859 206.722 630.629 206.667 630.31C206.138 630.861 205.491 631.137 204.726 631.137C203.983 631.137 203.377 630.925 202.907 630.501C202.438 630.077 202.203 629.553 202.203 628.929C202.203 628.14 202.495 627.536 203.078 627.117C203.666 626.693 204.505 626.481 205.594 626.481H206.612V625.996C206.612 625.613 206.505 625.308 206.291 625.08C206.077 624.848 205.751 624.731 205.313 624.731C204.935 624.731 204.625 624.827 204.384 625.019C204.142 625.205 204.021 625.445 204.021 625.736H202.36C202.36 625.331 202.495 624.952 202.764 624.602C203.033 624.246 203.397 623.968 203.857 623.768C204.322 623.567 204.84 623.467 205.409 623.467C206.275 623.467 206.965 623.686 207.48 624.123C207.995 624.556 208.26 625.167 208.273 625.955V629.291C208.273 629.956 208.367 630.487 208.554 630.884V631H206.858ZM205.033 629.804C205.361 629.804 205.669 629.724 205.956 629.564C206.248 629.405 206.466 629.191 206.612 628.922V627.527H205.717C205.102 627.527 204.639 627.634 204.329 627.849C204.019 628.063 203.864 628.366 203.864 628.758C203.864 629.077 203.969 629.332 204.179 629.523C204.393 629.71 204.678 629.804 205.033 629.804ZM211.555 623.604L211.603 624.458C212.149 623.797 212.867 623.467 213.756 623.467C215.296 623.467 216.08 624.349 216.107 626.112V631H214.446V626.208C214.446 625.739 214.344 625.392 214.139 625.169C213.938 624.941 213.608 624.827 213.147 624.827C212.478 624.827 211.979 625.13 211.65 625.736V631H209.989V623.604H211.555ZM220.209 627.828L219.471 628.587V631H217.81V620.5H219.471V626.557L219.99 625.907L222.034 623.604H224.03L221.282 626.687L224.324 631H222.403L220.209 627.828ZM231.092 629.742C230.759 630.225 230.335 630.583 229.82 630.815C229.424 631.071 229.141 631.305 228.973 631.52C228.804 631.734 228.72 631.952 228.72 632.176C228.72 632.486 228.882 632.641 229.205 632.641C229.406 632.641 229.611 632.588 229.82 632.483L229.964 633.454C229.631 633.655 229.255 633.755 228.836 633.755C228.403 633.755 228.054 633.63 227.79 633.379C227.526 633.128 227.394 632.796 227.394 632.381C227.394 631.916 227.576 631.497 227.94 631.123C226.997 631.064 226.227 630.722 225.63 630.098C225.037 629.469 224.728 628.664 224.7 627.685V627.288C224.7 626.55 224.841 625.891 225.124 625.312C225.411 624.729 225.812 624.276 226.327 623.952C226.842 623.629 227.416 623.467 228.05 623.467C229.057 623.467 229.834 623.788 230.381 624.431C230.932 625.073 231.208 625.982 231.208 627.158V627.828H226.375C226.425 628.439 226.628 628.922 226.983 629.277C227.343 629.633 227.795 629.811 228.337 629.811C229.098 629.811 229.718 629.503 230.196 628.888L231.092 629.742ZM228.043 624.8C227.587 624.8 227.218 624.959 226.936 625.278C226.658 625.597 226.48 626.042 226.402 626.611H229.567V626.488C229.531 625.932 229.383 625.513 229.123 625.23C228.863 624.943 228.503 624.8 228.043 624.8Z" fill="#F5E5E7"/>
<path d="M289.748 205.888C288.085 204.05 285.74 203 283.255 203H90.7555C88.288 203 85.9255 204.05 84.263 205.888C82.618 207.707 81.7955 210.158 82.0405 212.625L108.29 475.125C108.745 479.605 112.508 483 117.005 483H257.005C261.503 483 265.265 479.605 265.703 475.125L291.953 212.625C292.215 210.158 291.41 207.707 289.748 205.888Z" fill="#ECEFF1"/>
<path d="M266.455 292.25L249.13 465.5H124.88L105.455 271.775C127.33 264.775 160.58 260.05 187.005 281.75C212.555 302.75 244.755 298.9 266.455 292.25Z" fill="#2196F3"/>
<path d="M211.281 345.375C211.281 349.276 210.279 352.758 208.273 355.82C206.268 358.846 203.534 361.234 200.07 362.984C204.227 364.917 207.417 367.56 209.641 370.914C211.901 374.268 213.031 378.06 213.031 382.289C213.031 389.289 210.661 394.849 205.922 398.969C201.182 403.052 194.875 405.094 187 405.094C179.089 405.094 172.745 403.034 167.969 398.914C163.229 394.794 160.859 389.253 160.859 382.289C160.859 378.023 161.99 374.195 164.25 370.805C166.51 367.414 169.682 364.807 173.766 362.984C170.339 361.234 167.622 358.846 165.617 355.82C163.648 352.758 162.664 349.276 162.664 345.375C162.664 338.594 164.852 333.216 169.227 329.242C173.602 325.268 179.508 323.281 186.945 323.281C194.419 323.281 200.344 325.268 204.719 329.242C209.094 333.216 211.281 338.594 211.281 345.375ZM199.742 381.633C199.742 377.695 198.557 374.523 196.188 372.117C193.854 369.674 190.755 368.453 186.891 368.453C183.026 368.453 179.927 369.656 177.594 372.062C175.297 374.469 174.148 377.659 174.148 381.633C174.148 385.534 175.279 388.651 177.539 390.984C179.836 393.318 182.99 394.484 187 394.484C191.01 394.484 194.128 393.354 196.352 391.094C198.612 388.833 199.742 385.68 199.742 381.633ZM198.047 345.867C198.047 342.404 197.044 339.56 195.039 337.336C193.034 335.076 190.336 333.945 186.945 333.945C183.555 333.945 180.875 335.021 178.906 337.172C176.938 339.286 175.953 342.185 175.953 345.867C175.953 349.513 176.938 352.411 178.906 354.562C180.911 356.714 183.609 357.789 187 357.789C190.391 357.789 193.07 356.714 195.039 354.562C197.044 352.411 198.047 349.513 198.047 345.867Z" fill="black"/>
<defs>
<filter id="filter0_d" x="75" y="531" width="224" height="55" filterUnits="userSpaceOnUse" color-interpolation-filters="sRGB">
<feFlood flood-opacity="0" result="BackgroundImageFix"/>
<feColorMatrix in="SourceAlpha" type="matrix" values="0 0 0 0 0 0 0 0 0 0 0 0 0 0 0 0 0 0 127 0"/>
<feOffset dy="4"/>
<feGaussianBlur stdDeviation="2"/>
<feColorMatrix type="matrix" values="0 0 0 0 0 0 0 0 0 0 0 0 0 0 0 0 0 0 0.25 0"/>
<feBlend mode="normal" in2="BackgroundImageFix" result="effect1_dropShadow"/>
<feBlend mode="normal" in="SourceGraphic" in2="effect1_dropShadow" result="shape"/>
</filter>
</defs>
</svg>
